#!OML:ASF E:\emotionWalksFemale\Project 1\Capture day 1\Session 1\Female1.ASF
:FULLY-SPECIFIED
:DEGREES
1679
root 8.62048 15.0723 -37.0639 -3.09599 8.94283 -4.04424
lowerback 5.42554 1.16651 1.15584
upperback -2.92413 1.73009 1.31447
thorax -6.09454 0.837043 0.536136
lowerneck -8.07841 -6.58817 -7.23985
upperneck 31.5148 -13.5192 16.6674
head 13.7785 -4.92522 5.98834
rclavicle 2.9271e-014 -5.56597e-015
rhumerus -44.1336 19.7327 -99.1185
rradius 31.1477
rwrist 15.2378
rhand -7.97477 -49.5513
rfingers 7.12502
rthumb 17.9331 -78.7445
lclavicle 2.9271e-014 -5.56597e-015
lhumerus -44.0897 -0.158068 85.5506
lradius 33.2489
lwrist -17.2589
lhand -4.10802 -33.805
lfingers 7.12502
lthumb 21.6502 -4.99545
rfemur 8.40577 12.7336 38.7069
rtibia 15.6737
rfoot -19.7348 -31.4048
rtoes 12.2272
lfemur -30.199 -18.651 -13.8788
ltibia 38.7265
lfoot -19.3789 10.0738
ltoes -19.3158
1680
root 8.62699 15.0754 -37.0412 -2.80473 8.95503 -3.98612
lowerback 5.18548 1.17293 1.03956
upperback -2.99335 1.72452 1.28769
thorax -6.0322 0.838927 0.578412
lowerneck -7.98861 -6.60953 -7.17935
upperneck 31.4366 -13.5476 16.6568
head 13.7222 -4.93923 5.96443
rclavicle 1.44243e-014 5.96354e-016
rhumerus -44.2387 19.8073 -99.2164
rradius 31.2378
rwrist 14.9533
rhand -7.81742 -49.747
rfingers 7.12502
rthumb 18.0845 -78.9263
lclavicle 1.44243e-014 5.96354e-016
lhumerus -44.1785 -0.194741 85.4598
lradius 33.352
lwrist -17.2303
lhand -4.57715 -33.8908
lfingers 7.12502
lthumb 21.1996 -5.02997
rfemur 8.39133 12.9148 38.6478
rtibia 15.3568
rfoot -19.7177 -31.4987
rtoes 12.2157
lfemur -30.5146 -19.0406 -13.6776
ltibia 38.0449
lfoot -19.1889 10.3567
ltoes -19.2963
1681
root 8.63651 15.0763 -37.0176 -2.76804 8.88252 -3.85238
lowerback 5.16953 1.18234 0.899192
upperback -2.89987 1.7223 1.25854
thorax -5.92762 0.843243 0.628164
lowerneck -8.06736 -6.59899 -7.22023
upperneck 31.297 -13.524 16.7387
head 13.6851 -4.92663 5.99888
rclavicle -1.68967e-015 -1.19271e-015
rhumerus -44.2762 20.1244 -99.3602
rradius 31.4935
rwrist 14.7275
rhand -8.06339 -50.248
rfingers 7.12502
rthumb 17.8478 -79.449
lclavicle -1.68967e-015 -1.19271e-015
lhumerus -44.1405 -0.182607 85.355
lradius 33.5052
lwrist -16.9833
lhand -4.29361 -34.189
lfingers 7.12502
lthumb 21.472 -5.35904
rfemur 8.71096 13.0938 38.5503
rtibia 14.9677
rfoot -19.6067 -31.6409
rtoes 12.3647
lfemur -30.5044 -19.5206 -13.6541
ltibia 37.4513
lfoot -18.9548 10.7478
ltoes -18.7223
1682
root 8.64766 15.0784 -36.9877 -2.84552 8.70098 -3.89828
lowerback 5.33012 1.2074 0.978497
upperback -2.87277 1.76441 1.25907
thorax -5.98909 0.860464 0.576752
lowerneck -8.14511 -6.55786 -7.29488
upperneck 31.2822 -13.4973 16.8981
head 13.7142 -4.90374 6.08315
rclavicle -5.1274e-014 -1.61016e-014
rhumerus -44.3712 20.1581 -99.4278
rradius 31.5158
rwrist 14.9331
rhand -7.63485 -50.6419
rfingers 7.12502
rthumb 18.2602 -79.8048
lclavicle -5.1274e-014 -1.61016e-014
lhumerus -44.1242 -0.146501 85.274
lradius 33.4721
lwrist -16.8753
lhand -4.14083 -34.1192
lfingers 7.12502
lthumb 21.6187 -5.306
rfemur 9.09488 13.23 38.6306
rtibia 14.6583
rfoot -19.4613 -31.6994
rtoes 12.1009
lfemur -30.3533 -19.9285 -13.4909
ltibia 36.9163
lfoot -18.6301 11.2176
ltoes -18.6073
1683
root 8.65988 15.0804 -36.9586 -2.81304 8.48549 -3.98373
lowerback 5.35279 1.28682 0.974671
upperback -2.94856 1.87655 1.3309
thorax -6.08532 0.917226 0.64062
lowerneck -7.89685 -6.55143 -7.36235
upperneck 31.1528 -13.4859 16.9931
head 13.6131 -4.91433 6.13532
rclavicle 4.94477e-015 -1.43125e-014
rhumerus -44.5875 20.1059 -99.4155
rradius 31.4062
rwrist 15.4092
rhand -8.76361 -49.2431
rfingers 7.12502
rthumb 17.174 -78.5041
lclavicle 4.94477e-015 -1.43125e-014
lhumerus -44.2792 -0.129831 85.3246
lradius 33.4778
lwrist -16.9172
lhand -4.42788 -34.2242
lfingers 7.12502
lthumb 21.343 -5.37958
rfemur 9.35808 13.3005 38.7047
rtibia 14.3348
rfoot -19.2889 -31.618
rtoes 11.6398
lfemur -30.3631 -20.2562 -13.2212
ltibia 36.4412
lfoot -18.4361 11.7662
ltoes -19.0431
1684
root 8.67195 15.0847 -36.9383 -2.57712 8.43417 -3.92167
lowerback 5.302 1.23806 0.963903
upperback -2.92923 1.80904 1.33051
thorax -6.03567 0.884573 0.654666
lowerneck -8.2438 -6.53919 -7.4496
upperneck 31.116 -13.4404 16.9971
head 13.6739 -4.88879 6.1488
rclavicle 1.63003e-014 5.76476e-015
rhumerus -44.4702 20.6257 -99.6024
rradius 31.4274
rwrist 14.8029
rhand -8.52737 -49.8762
rfingers 7.12502
rthumb 17.4014 -79.1173
lclavicle 1.63003e-014 5.76476e-015
lhumerus -44.2235 0.0489198 85.2853
lradius 33.7007
lwrist -16.936
lhand -4.84496 -34.1609
lfingers 7.12502
lthumb 20.9424 -5.2714
rfemur 9.45307 13.2892 38.5436
rtibia 13.8429
rfoot -19.0662 -31.4837
rtoes 11.325
lfemur -30.6483 -20.603 -13.0639
ltibia 36.0529
lfoot -18.4607 12.2187
ltoes -19.1346
1685
root 8.68112 15.0898 -36.9181 -2.29396 8.55336 -3.83203
lowerback 5.3129 1.18952 0.900367
upperback -3.05011 1.73766 1.25891
thorax -6.16843 0.849812 0.621858
lowerneck -8.24176 -6.55084 -7.45714
upperneck 31 -13.469 17.0929
head 13.6378 -4.89704 6.17833
rclavicle -2.07357e-014 -9.74045e-015
rhumerus -44.5766 20.791 -99.7997
rradius 31.2997
rwrist 14.7569
rhand -7.78929 -50.9135
rfingers 7.12502
rthumb 18.1116 -80.0903
lclavicle -2.07357e-014 -9.74045e-015
lhumerus -44.2516 0.207069 85.0387
lradius 33.7304
lwrist -16.7992
lhand -4.27815 -33.6675
lfingers 7.12502
lthumb 21.4868 -4.83922
rfemur 9.42043 13.2549 38.3619
rtibia 13.4639
rfoot -18.8312 -31.5188
rtoes 10.8385
lfemur -31.0059 -21.0017 -12.9338
ltibia 35.707
lfoot -18.6973 12.1439
ltoes -16.0089
1686
root 8.69543 15.0929 -36.8794 -2.26474 8.47249 -3.83851
lowerback 5.22323 1.22363 0.858548
upperback -3.0837 1.77936 1.26382
thorax -6.15408 0.872409 0.647624
lowerneck -8.02793 -6.5454 -7.49982
upperneck 30.8179 -13.4752 17.2498
head 13.5295 -4.90627 6.24487
rclavicle -1.84621e-014 -1.09332e-014
rhumerus -44.7055 20.6367 -99.7259
rradius 31.2523
rwrist 15.5109
rhand -8.50493 -49.7944
rfingers 7.12502
rthumb 17.4229 -79.0335
lclavicle -1.84621e-014 -1.09332e-014
lhumerus -44.346 0.0878828 85.1018
lradius 33.6869
lwrist -16.8223
lhand -4.69169 -33.6102
lfingers 7.12502
lthumb 21.0896 -4.73714
rfemur 9.71944 13.3186 38.3803
rtibia 13.152
rfoot -18.6438 -31.6272
rtoes 10.2715
lfemur -30.9447 -21.4182 -12.7911
ltibia 35.4084
lfoot -19.0853 12.3599
ltoes -12.813
1687
root 8.71194 15.0955 -36.8543 -2.10475 8.15605 -3.89956
lowerback 5.23919 1.29924 1.07213
upperback -3.13844 1.8948 1.19595
thorax -6.21261 0.918508 0.444327
lowerneck -8.2019 -6.5484 -7.45361
upperneck 30.7904 -13.518 17.3532
head 13.5724 -4.90111 6.26794
rclavicle 9.06955e-015 -2.5842e-015
rhumerus -44.6047 20.4263 -99.653
rradius 31.2766
rwrist 15.8801
rhand -8.27583 -49.8977
rfingers 7.12502
rthumb 17.6434 -79.1172
lclavicle 9.06955e-015 -2.5842e-015
lhumerus -44.3534 0.0363248 84.9864
lradius 33.8188
lwrist -16.5705
lhand -4.54579 -33.4007
lfingers 7.12502
lthumb 21.2298 -4.54326
rfemur 9.81762 13.3998 38.325
rtibia 12.819
rfoot -18.3433 -31.4266
rtoes 9.65933
lfemur -31.0235 -21.5204 -12.5868
ltibia 35.1343
lfoot -18.9949 12.9484
ltoes -14.0212
1688
root 8.7206 15.0974 -36.8246 -1.92739 8.12027 -3.86721
lowerback 5.06768 1.27612 0.900122
upperback -3.10083 1.84935 1.24636
thorax -6.08141 0.905247 0.602232
lowerneck -8.37096 -6.56553 -7.46668
upperneck 30.6913 -13.5145 17.3317
head 13.5647 -4.89888 6.24961
rclavicle -1.28465e-014 -4.17448e-015
rhumerus -44.474 20.5782 -99.5848
rradius 31.3409
rwrist 15.5603
rhand -8.08004 -50.0705
rfingers 7.12502
rthumb 17.8318 -79.2729
lclavicle -1.28465e-014 -4.17448e-015
lhumerus -44.247 0.392078 84.8154
lradius 33.7534
lwrist -16.8289
lhand -4.57125 -33.6832
lfingers 7.12502
lthumb 21.2053 -4.82307
rfemur 9.99221 13.5941 38.3041
rtibia 12.4324
rfoot -18.367 -31.4814
rtoes 9.93966
lfemur -31.1617 -21.6095 -12.53
ltibia 34.9179
lfoot -18.5552 13.2141
ltoes -16.7889
1689
root 8.73537 15.0953 -36.7911 -1.85324 8.09156 -3.75876
lowerback 4.95189 1.24424 0.767078
upperback -3.04647 1.79311 1.24016
thorax -5.96111 0.88329 0.679194
lowerneck -8.39894 -6.55481 -7.50217
upperneck 30.5504 -13.478 17.3691
head 13.5085 -4.88774 6.26667
rclavicle -2.04872e-014 -2.32578e-014
rhumerus -44.4672 20.777 -99.652
rradius 31.3725
rwrist 15.0226
rhand -7.91301 -50.2488
rfingers 7.12502
rthumb 17.9925 -79.4365
lclavicle -2.04872e-014 -2.32578e-014
lhumerus -44.1355 0.64976 84.6553
lradius 33.6195
lwrist -16.9957
lhand -4.48456 -34.0091
lfingers 7.12502
lthumb 21.2886 -5.15829
rfemur 10.2529 13.7274 38.202
rtibia 12.1695
rfoot -18.5832 -31.4982
rtoes 10.6136
lfemur -31.1808 -21.9272 -12.5599
ltibia 34.7274
lfoot -18.2435 13.5371
ltoes -17.3947
